<svg width="14" height="15" viewBox="0 0 14 15" fill="none" xmlns="http://www.w3.org/2000/svg">
<path d="M6.9984 1.86475C5.36085 1.86475 5.15534 1.87191 4.51218 1.90118C3.87028 1.93057 3.43212 2.0322 3.04874 2.18131C2.65216 2.33532 2.31576 2.54134 1.98061 2.87663C1.64521 3.21178 1.4392 3.5482 1.28469 3.94466C1.13521 4.32818 1.03346 4.76647 1.00457 5.40814C0.975799 6.05133 0.968262 6.25697 0.968262 7.89457C0.968262 9.53217 0.975548 9.73705 1.00469 10.3802C1.03421 11.0222 1.13584 11.4603 1.28482 11.8437C1.43895 12.2403 1.64496 12.5767 1.98024 12.9119C2.31526 13.2473 2.65166 13.4538 3.04798 13.6078C3.43162 13.7569 3.8699 13.8586 4.51168 13.888C5.15484 13.9172 5.36022 13.9244 6.99765 13.9244C8.63532 13.9244 8.8402 13.9172 9.48336 13.888C10.1253 13.8586 10.5639 13.7569 10.9476 13.6078C11.344 13.4538 11.6799 13.2473 12.0149 12.9119C12.3503 12.5767 12.5563 12.2403 12.7109 11.8438C12.8591 11.4603 12.9608 11.022 12.991 10.3804C13.0199 9.73718 13.0274 9.53217 13.0274 7.89457C13.0274 6.25697 13.0199 6.05145 12.991 5.40827C12.9608 4.76635 12.8591 4.32818 12.7109 3.94478C12.5563 3.5482 12.3503 3.21178 12.0149 2.87663C11.6795 2.54122 11.3441 2.3352 10.9472 2.18131C10.5628 2.0322 10.1244 1.93057 9.48248 1.90118C8.83932 1.87191 8.63457 1.86475 6.99652 1.86475H6.9984ZM6.45749 2.95137C6.61803 2.95112 6.79716 2.95137 6.9984 2.95137C8.60831 2.95137 8.79913 2.95715 9.43488 2.98604C10.0228 3.01292 10.3418 3.11116 10.5544 3.19369C10.8358 3.30298 11.0364 3.43363 11.2473 3.64467C11.4583 3.85572 11.589 4.05671 11.6985 4.3381C11.781 4.5504 11.8794 4.86948 11.9061 5.45739C11.935 6.09303 11.9413 6.28398 11.9413 7.89318C11.9413 9.50239 11.935 9.69334 11.9061 10.329C11.8793 10.9169 11.781 11.236 11.6985 11.4483C11.5892 11.7297 11.4583 11.93 11.2473 12.1409C11.0362 12.352 10.8359 12.4826 10.5544 12.5919C10.3421 12.6748 10.0228 12.7728 9.43488 12.7997C8.79925 12.8286 8.60831 12.8349 6.9984 12.8349C5.38836 12.8349 5.19755 12.8286 4.56192 12.7997C3.97404 12.7726 3.65497 12.6743 3.4423 12.5918C3.16091 12.4825 2.95993 12.3519 2.74889 12.1408C2.53785 11.9298 2.40721 11.7293 2.29767 11.4478C2.21514 11.2355 2.11678 10.9164 2.09003 10.3285C2.06113 9.69283 2.05535 9.50189 2.05535 7.89168C2.05535 6.28146 2.06113 6.09152 2.09003 5.45588C2.11691 4.86797 2.21514 4.5489 2.29767 4.33634C2.40696 4.05495 2.53785 3.85396 2.74889 3.64291C2.95993 3.43187 3.16091 3.30123 3.4423 3.19168C3.65484 3.10877 3.97404 3.01079 4.56192 2.98378C5.11816 2.95866 5.33372 2.95112 6.45749 2.94986V2.95137ZM10.217 3.95257C9.81751 3.95257 9.49341 4.2763 9.49341 4.6759C9.49341 5.07537 9.81751 5.39948 10.217 5.39948C10.6164 5.39948 10.9405 5.07537 10.9405 4.6759C10.9405 4.27642 10.6164 3.95232 10.217 3.95232V3.95257ZM6.9984 4.798C5.28837 4.798 3.90193 6.18448 3.90193 7.89457C3.90193 9.60465 5.28837 10.9905 6.9984 10.9905C8.70843 10.9905 10.0944 9.60465 10.0944 7.89457C10.0944 6.18448 8.7083 4.798 6.99827 4.798H6.9984ZM6.9984 5.88463C8.10836 5.88463 9.00828 6.78445 9.00828 7.89457C9.00828 9.00456 8.10836 9.90451 6.9984 9.90451C5.88832 9.90451 4.98852 9.00456 4.98852 7.89457C4.98852 6.78445 5.88832 5.88463 6.9984 5.88463Z" fill="#179859"/>
</svg>
