<svg width="14" height="14" viewBox="0 0 14 14" fill="none" xmlns="http://www.w3.org/2000/svg">
<path fill-rule="evenodd" clip-rule="evenodd" d="M6.96652 5.70538C6.93599 6.09185 6.96515 6.61458 6.96515 7.01609C6.96515 7.2239 6.99569 7.45906 6.89998 7.61675C6.82706 7.73706 6.63748 7.8273 6.45336 7.74755C6.28337 7.67326 6.22412 7.55978 6.22412 7.31778L6.22458 4.69865C6.22503 4.46668 6.2902 4.34181 6.46338 4.27846C6.70538 4.19005 6.83117 4.33816 6.92414 4.45073C7.05174 4.60614 8.24988 6.2828 8.31232 6.32108C8.3073 5.8813 8.31186 5.43968 8.31186 5.00035C8.31186 4.7939 8.28543 4.54233 8.38432 4.40971C8.47091 4.2935 8.67417 4.18367 8.86331 4.30125C9.02464 4.40151 9.05244 4.53322 9.05198 4.77431L9.05244 6.73353C9.05244 7.16511 9.15817 7.66551 8.7676 7.76805C8.55842 7.82274 8.42124 7.68967 8.34285 7.57345L6.96652 5.70538ZM10.279 7.03547C10.5182 7.05188 10.8026 7.03821 11.0469 7.03821C11.3276 7.03821 11.4935 7.02772 11.617 7.21959C11.7515 7.42877 11.6234 7.65619 11.4789 7.73047C11.3012 7.82253 10.2972 7.7806 10.0297 7.78152C9.78085 7.78243 9.61086 7.72273 9.55435 7.51172C9.52108 7.38867 9.52928 4.59681 9.55799 4.50931C9.62863 4.29602 9.77264 4.25455 10.0484 4.25501C10.2995 4.25546 10.551 4.25501 10.8022 4.25501C11.0113 4.25501 11.3263 4.21445 11.4953 4.30696C11.653 4.39355 11.7255 4.61686 11.6088 4.82787C11.5081 5.00971 11.2903 4.99422 11.0282 4.99422C10.7789 4.99422 10.5237 4.98875 10.2771 4.99558L10.279 5.64273C10.69 5.67099 11.3513 5.57847 11.5254 5.7275C11.7665 5.93441 11.6612 6.22881 11.5172 6.31814C11.3294 6.43481 10.6025 6.37966 10.2776 6.38832L10.279 7.03547ZM3.23864 7.04115C3.4779 7.0334 3.72491 7.03887 3.96463 7.03887C4.20709 7.03887 4.40989 7.01061 4.53476 7.16192C4.65599 7.30775 4.64779 7.5575 4.51562 7.68009C4.37708 7.80861 4.15422 7.78081 3.92681 7.78081H3.21084C2.96975 7.78081 2.77196 7.80861 2.62111 7.68146C2.46206 7.54747 2.49898 7.33874 2.49943 7.09173V6.39445C2.49943 5.92367 2.49989 5.45244 2.49989 4.98166C2.49989 4.74878 2.46252 4.51134 2.59696 4.36778C2.71636 4.24063 2.95882 4.21146 3.10967 4.34773C3.27145 4.49265 3.23819 4.66401 3.23819 4.92515L3.23864 7.04115ZM5.2116 4.27959C5.39161 4.21397 5.52606 4.29053 5.61265 4.38897C5.71747 4.50792 5.70288 4.65467 5.70288 4.83104L5.7038 6.95979C5.7038 7.35036 5.76851 7.64021 5.44357 7.75916C5.295 7.81339 5.13002 7.73956 5.0571 7.65753C4.95957 7.5477 4.96185 7.40551 4.96231 7.22367L4.96276 5.09446C4.96322 4.70617 4.89076 4.39672 5.2116 4.27959ZM6.42976 0.240663C5.03201 0.352775 3.65067 0.758383 2.54915 1.51217C2.23378 1.72774 1.86144 2.0185 1.59665 2.27554C1.45902 2.40952 1.31318 2.56356 1.19515 2.72216L1.00647 2.96689C0.973202 3.01247 0.939477 3.04255 0.912589 3.08037C0.014783 4.32591 -0.228582 5.8303 0.218043 7.34974C0.386666 7.92123 0.79911 8.66226 1.21839 9.12119C1.26168 9.16904 1.27445 9.2014 1.31273 9.25336L1.84594 9.77427C2.06515 9.94654 1.97947 9.90916 2.21372 10.0659C2.32584 10.1411 2.36867 10.1999 2.4621 10.251L2.84538 10.4889C3.01309 10.6019 3.06003 10.6352 3.2642 10.7304C3.8079 10.9838 4.13922 11.157 4.82511 11.3174C5.14868 11.3931 6.03145 11.5503 6.21921 11.6378C6.30626 11.6779 6.40971 11.7586 6.44982 11.8219C6.60887 12.0716 6.45802 12.7079 6.41336 12.9726C6.37234 13.2165 6.28393 13.5578 6.60112 13.571C6.81395 13.5797 7.09697 13.443 7.25374 13.3582L9.48823 11.9568C9.62632 11.8688 9.68966 11.7968 9.7243 11.7786C9.86831 11.702 10.4106 11.3151 10.5383 11.1975C10.7611 10.9911 10.7297 11.0399 10.9598 10.8653C11.0304 10.812 11.0063 10.7947 11.0696 10.7505C11.2159 10.6493 11.5331 10.4018 11.6498 10.276C11.6981 10.2245 11.7282 10.2131 11.7665 10.1653C11.8882 10.0149 12.0613 9.90825 12.3006 9.62615C12.348 9.57055 12.3658 9.57374 12.4095 9.52817L12.6105 9.29528C12.7208 9.12712 12.682 9.19548 12.8069 9.05876C12.9751 8.87601 13.0877 8.66226 13.1624 8.56565C13.3196 8.36056 13.527 7.96817 13.6259 7.73028C13.8023 7.30735 13.9495 6.8311 13.9855 6.35577C14.0611 5.36089 13.8387 4.32363 13.3843 3.56847L13.1515 3.17881C12.9459 2.89079 12.7117 2.60732 12.4665 2.3562C10.9575 0.81216 8.55077 0.0706728 6.42976 0.240663Z" fill="#179859"/>
</svg>
