<svg width="14" height="11" viewBox="0 0 14 11" fill="none" xmlns="http://www.w3.org/2000/svg">
<g clip-path="url(#clip0)">
<path d="M13.6879 2.54904C13.5274 1.94932 13.0573 1.47646 12.461 1.315C11.3717 1.01514 7.0144 1.01514 7.0144 1.01514C7.0144 1.01514 2.65711 1.01514 1.56778 1.30346C0.98299 1.46493 0.501395 1.94932 0.340863 2.54904C0.0541992 3.64468 0.0541992 5.91671 0.0541992 5.91671C0.0541992 5.91671 0.0541992 8.20026 0.340863 9.28437C0.501395 9.88409 0.971524 10.3569 1.56778 10.5184C2.66857 10.8183 7.0144 10.8183 7.0144 10.8183C7.0144 10.8183 11.3717 10.8183 12.461 10.5299C13.0573 10.3685 13.5274 9.89563 13.6879 9.2959C13.9746 8.20026 13.9746 5.92824 13.9746 5.92824C13.9746 5.92824 13.9861 3.64468 13.6879 2.54904Z" fill="#179859"/>
<path d="M9.25038 5.9169L5.62695 3.81787V8.01592L9.25038 5.9169Z" fill="white"/>
</g>
<defs>
<clipPath id="clip0">
<rect width="14" height="9.86364" fill="white" transform="translate(0 0.962402)"/>
</clipPath>
</defs>
</svg>
