<svg width="321" height="306" viewBox="0 0 321 306" fill="none" xmlns="http://www.w3.org/2000/svg">
<path d="M153.666 3.80611C156.72 -1.26869 164.078 -1.26871 167.132 3.80609L216.491 85.8241C217.588 87.6472 219.378 88.9475 221.451 89.4276L314.707 111.026C320.478 112.362 322.751 119.36 318.869 123.832L256.118 196.121C254.723 197.728 254.039 199.831 254.223 201.951L262.5 297.318C263.012 303.219 257.06 307.543 251.606 305.233L163.464 267.891C161.505 267.061 159.293 267.061 157.334 267.891L69.1925 305.233C63.7388 307.543 57.7866 303.219 58.2987 297.318L66.5753 201.951C66.7592 199.831 66.0757 197.728 64.6808 196.121L1.92988 123.832C-1.95278 119.36 0.320751 112.362 6.09093 111.026L99.3475 89.4276C101.42 88.9475 103.21 87.6472 104.307 85.8241L153.666 3.80611Z" fill="#EEC763"/>
</svg>
