<svg width="290" height="40" viewBox="0 0 290 40" fill="none" xmlns="http://www.w3.org/2000/svg">
<path d="M2.22524 3.25645C1.35685 3.25645 1.00407 3.28359 0.352782 3.365V1.32972C0.922659 1.43827 1.43826 1.4654 2.33379 1.4654H5.64451C6.48575 1.4654 7.00136 1.41113 7.57123 1.32972V3.33786C6.97422 3.25645 6.48575 3.25645 5.72592 3.25645H4.96608V8.00543H5.78019C6.45862 8.00543 6.75712 7.97829 7.24559 7.92402V9.85075C6.70285 9.79648 6.32293 9.76934 5.78019 9.76934H4.96608V14.3826C5.75305 14.057 6.26866 13.8128 7.57123 13.1615L7.59837 15.0882C5.67164 16.1194 4.09769 16.7978 1.73677 17.6662C1.22117 17.8562 0.922659 17.9919 0.569878 18.1276L0 15.9566C0.651289 15.848 1.60109 15.5767 2.98507 15.1153V9.7422H2.11669C1.51967 9.7422 1.08548 9.76934 0.597015 9.85075V7.86975C1.11262 7.95116 1.4654 7.97829 2.14383 7.97829H3.01221V3.25645H2.22524ZM10.3935 13.4871C9.5251 13.4871 9.14518 13.5143 8.24966 13.5414C8.30393 12.9715 8.30394 12.2117 8.30394 11.2619V3.12076C8.30394 1.95387 8.2768 1.51968 8.24966 0.868389C8.7924 0.922663 9.308 0.9498 10.4206 0.9498H17.0149C18.0733 0.9498 18.5889 0.922663 19.1588 0.868389C19.1045 1.43827 19.0773 2.03528 19.0773 3.12076V11.2076C19.0773 12.2388 19.1045 12.9172 19.1588 13.5957C18.4532 13.5143 18.1818 13.5143 17.0149 13.5143H16.1737V18.2361C16.1737 18.5889 16.2822 18.6432 17.5577 18.6432C18.209 18.6432 18.5617 18.5889 18.6974 18.3989C18.8602 18.209 18.9688 17.0692 18.9959 15.6581C19.5929 16.0109 20.1357 16.228 20.787 16.4451C20.597 18.8331 20.4342 19.5115 19.9457 19.9457C19.5115 20.3528 18.806 20.4885 17.1506 20.4885C14.7083 20.4885 14.2198 20.19 14.2198 18.7788V13.4871H12.7544C12.7544 13.5685 12.7544 13.5685 12.7273 13.7856C12.4016 15.9023 11.6418 17.4491 10.2578 18.7517C9.17232 19.7558 8.08684 20.3528 6.18725 20.9769C5.8616 20.3257 5.61737 19.9457 4.96608 19.2402C7.00136 18.7517 8.33107 18.019 9.36228 16.8792C10.2307 15.9294 10.692 14.8168 10.8005 13.4871H10.3935ZM10.2578 4.58616H17.1506V2.65943H10.2578V4.58616ZM10.2578 8.11398H17.1506V6.26866H10.2578V8.11398ZM10.2578 11.8046H17.1506V9.79648H10.2578V11.8046Z" fill="#4C4C4C"/>
<path d="M47.8155 11.5332C47.8155 10.4478 47.8426 9.76933 47.8697 8.87381C46.9742 10.2578 46.5943 10.7191 45.3189 11.9946C44.8847 10.882 44.749 10.6106 44.2334 9.95929C46.3772 7.89688 47.8426 5.83446 48.9552 3.17503C49.4166 2.08955 49.7693 1.00407 49.8779 0.217094L52.0217 0.949795C51.0719 3.39213 50.692 4.23338 49.8236 5.8616V18.0461C49.8236 19.1316 49.8779 19.8915 49.9593 20.7327H47.6255C47.7341 19.9457 47.7883 19.2673 47.7883 17.9919V11.5332H47.8155ZM57.8833 8.2768C58.3446 11.4247 59.1045 13.7042 60.3528 15.6852C61.2212 17.0421 62.3067 18.1818 62.7409 18.1818C63.0122 18.1818 63.175 17.9919 63.3107 17.3948C63.5007 16.7978 63.6364 15.7395 63.7721 14.4369C64.5319 15.0882 64.9389 15.3867 65.5631 15.6852C65.0475 19.2673 64.3419 20.597 62.9037 20.597C61.3026 20.597 59.1045 18.3718 57.6119 15.1696C56.7436 13.3243 56.0923 11.0448 55.7395 8.49389L53.1072 8.73813C52.1303 8.81954 51.5604 8.90095 50.882 9.03663L50.8277 6.89281C51.1262 6.91994 51.2619 6.91994 51.4247 6.91994C51.8589 6.91994 52.5373 6.86567 53.1615 6.83853L55.5224 6.62144C55.3867 5.04749 55.3324 4.26051 55.3053 2.27951C55.3053 1.87245 55.2239 1.05834 55.1696 0.705561L57.4763 0.651287C57.422 1.11262 57.3948 1.4654 57.3948 2.30665C57.3948 3.63636 57.4491 4.64043 57.6119 6.43148L62.6052 5.99728C63.9077 5.88874 64.3691 5.80733 64.9661 5.67164L65.0475 7.81547H64.5048C64.0977 7.81547 63.555 7.8426 62.768 7.89688L57.8833 8.2768ZM60.1357 0.597013C61.4654 1.68249 62.0081 2.25237 63.6364 3.98914L62.1167 5.42741C61.2754 4.28765 59.9729 2.90366 58.7517 1.81818L60.1357 0.597013Z" fill="#4C4C4C"/>
<path d="M94.7897 4.58616C95.7666 4.58616 96.3636 4.55902 96.7164 4.50475C96.6621 4.83039 96.6621 4.83039 96.635 5.67164C96.4451 8.81954 95.7938 11.9674 94.844 14.3284C95.848 15.1696 96.228 15.5495 97.2863 16.5807L96.1465 18.3446C95.1153 17.2049 94.7354 16.825 94.0027 16.1194C92.9715 17.9647 92.1031 19.0773 90.4206 20.597C90.1221 20.0271 89.7151 19.5115 89.1995 18.9959C90.9362 17.5305 91.7503 16.5807 92.673 14.8982C91.6147 13.9756 91.1805 13.5957 89.8779 12.673C90.5835 10.692 91.0991 8.73813 91.479 6.3772H91.289C90.5563 6.3772 90.0678 6.40434 89.6065 6.48575V4.47761C90.095 4.55902 90.5563 4.58616 91.3976 4.58616H91.7503C91.9403 3.28358 92.076 1.60109 92.076 0.841248C92.076 0.786974 92.076 0.759837 92.0489 0.27137L94.1384 0.461329C94.0841 0.814111 93.9484 1.6825 93.7585 3.31072C93.7042 3.8806 93.7042 3.98914 93.5957 4.55902H94.7897V4.58616ZM93.2972 6.3772C92.9444 8.35821 92.5102 10.0407 91.9132 12.0217C92.7273 12.5916 92.9986 12.8087 93.46 13.1886C94.1655 11.3704 94.5455 9.49796 94.844 6.3772H93.2972ZM108.494 13.5685V14.2741V17.7476C108.494 19.0773 107.978 19.5115 106.513 19.5115C106.16 19.5115 106.024 19.5115 105.047 19.4573C105.047 18.7517 104.939 18.2632 104.64 17.6119C105.346 17.6934 105.834 17.7476 106.214 17.7476C106.621 17.7476 106.703 17.6934 106.703 17.3677V14.2198H104.016V18.4803C104.016 19.5929 104.043 20.1085 104.125 20.8141H102.062C102.144 20.1085 102.171 19.6472 102.171 18.4532V14.2198H99.7829V17.422C99.7829 18.2632 99.81 18.8602 99.8915 19.5115H97.8562C97.9376 18.8874 97.9919 18.1818 97.9919 17.232V14.3012C97.9919 14.0299 97.9919 13.9484 97.9647 13.46H96.635C96.6893 12.9986 96.7164 12.7273 96.7164 12.0488V10.5563C96.7164 9.79647 96.6893 9.55224 96.6621 9.14518C97.2592 9.19946 97.829 9.19946 98.6703 9.19946H107.788C108.874 9.19946 109.227 9.17232 109.851 9.14518C109.796 9.57938 109.796 9.9593 109.796 10.502V12.1303C109.796 12.7001 109.824 13.0801 109.878 13.5685H108.494ZM106.486 2.68657H100.054C99.1316 2.68657 98.3446 2.7137 97.7476 2.76798V1.00407C98.4532 1.08548 99.0773 1.11262 100.081 1.11262H106.431C107.327 1.11262 107.815 1.08548 108.494 1.03121C108.44 1.60109 108.44 2.00814 108.44 2.76798V6.48575C108.44 7.13704 108.467 7.48982 108.494 8.08684C108.06 8.03256 107.843 8.03256 106.784 8.03256H99.9729C98.9417 8.03256 98.3175 8.0597 97.7205 8.11398V6.40434C98.3989 6.45862 98.9145 6.48575 99.9457 6.48575H106.486V5.346H100.353C99.4301 5.346 98.7788 5.37313 98.2361 5.40027V3.74491C98.9145 3.79919 99.3216 3.79919 100.326 3.79919H106.486V2.68657ZM98.5889 10.882V12.6459C99.0231 12.673 99.3487 12.673 99.7558 12.673H102.171V10.882H98.5889ZM107.924 10.882H104.043V12.673H106.947C107.273 12.673 107.571 12.673 107.924 12.6459V10.882Z" fill="#4C4C4C"/>
<path d="M152.402 20.6784C150.611 19.213 148.277 17.6662 145.699 16.228C144.532 17.2863 143.256 18.1004 141.737 18.806C139.891 19.6201 138.48 20.0271 135.441 20.5427C135.088 19.593 134.953 19.3216 134.41 18.5346C136.852 18.209 138.046 17.9647 139.919 17.3134C141.33 16.7978 142.524 16.1194 143.718 15.2239C141.872 14.3284 141.791 14.2741 139.023 13.2157C138.779 13.5685 138.643 13.7856 138.182 14.4369C137.449 13.9756 136.961 13.7313 136.119 13.4328C137.721 11.479 138.86 9.68793 140.136 7.10991H136.934C135.902 7.10991 135.115 7.16418 134.437 7.2456V5.02036C135.142 5.12891 135.929 5.18318 136.934 5.18318H140.95C141.737 3.22931 142.28 1.46541 142.442 0.325649L144.885 0.705568C144.695 1.19403 144.532 1.60109 144.315 2.30665C144.016 3.20218 143.636 4.31479 143.311 5.18318H152.049C153.134 5.18318 153.84 5.12891 154.545 5.02036V7.2456C153.84 7.16418 153.08 7.10991 152.076 7.10991H150.611C149.851 10.4749 148.901 12.5645 147.137 14.7354C149.634 16.0651 151.832 17.3949 153.921 18.8331L152.402 20.6784ZM142.469 7.05564C141.601 8.95523 140.896 10.2578 140.109 11.5332C142.334 12.3474 143.365 12.7816 145.265 13.7313C146.92 11.8046 147.788 9.98644 148.44 7.05564H142.469Z" fill="#4C4C4C"/>
<path d="M183.446 2.00814C183.446 1.30258 183.392 0.786972 183.338 0.352779H185.536C185.482 0.814109 185.427 1.41112 185.427 2.00814V2.22524H192.754V1.981C192.754 1.32971 192.7 0.759835 192.646 0.352779H194.844C194.79 0.841246 194.735 1.41112 194.735 1.981V2.22524H196.445C197.476 2.22524 198.209 2.17096 198.833 2.08955V4.07055C198.073 4.01628 197.341 3.96201 196.445 3.96201H194.735V10.6106H196.798C197.72 10.6106 198.507 10.5563 199.186 10.4749V12.4016C198.535 12.3202 197.802 12.2659 196.852 12.2659H194.057C195.387 13.4871 197.286 14.3826 199.783 15.0068C199.376 15.6038 199.132 16.1194 198.833 16.9607C197.232 16.3908 196.092 15.848 194.708 14.9796V16.445C194.111 16.3908 193.623 16.3636 192.7 16.3636H189.905V18.2632H195.604C196.689 18.2632 197.341 18.209 198.046 18.1275V20.1628C197.313 20.0814 196.554 20.0271 195.468 20.0271H182.877C181.818 20.0271 181.031 20.0814 180.271 20.1628V18.1547C180.841 18.209 181.574 18.2632 182.741 18.2632H187.924V16.3636H185.509C184.586 16.3636 184.125 16.3908 183.501 16.445V14.9254C182.225 15.8209 181.221 16.3365 179.403 17.0149C179.132 16.1465 178.969 15.7938 178.453 15.0882C180.868 14.5183 182.904 13.4871 184.043 12.2659H181.33C180.38 12.2659 179.674 12.3202 178.996 12.4016V10.4749C179.62 10.5563 180.353 10.6106 181.33 10.6106H183.392V3.96201H182.008C181.085 3.96201 180.38 4.01628 179.62 4.07055V2.08955C180.244 2.17096 180.977 2.22524 182.008 2.22524H183.392V2.00814H183.446ZM186.404 12.2659C185.726 13.1072 185.075 13.7856 184.016 14.5997C184.586 14.654 184.858 14.654 185.563 14.654H187.978C187.978 13.8128 187.951 13.4328 187.87 12.9444H190.041C189.959 13.4328 189.932 13.8128 189.932 14.5455V14.654H192.727C193.406 14.654 193.786 14.654 194.22 14.5997C193.08 13.7856 192.483 13.2429 191.669 12.2659H186.404ZM192.754 3.96201H185.427V5.15604H192.754V3.96201ZM192.754 6.64857H185.427V7.86974H192.754V6.64857ZM192.754 9.36228H185.427V10.6106H192.754V9.36228Z" fill="#4C4C4C"/>
<path d="M230.692 8.30393C229.796 8.30393 229.199 8.33107 228.548 8.41248V7.05563C227.191 7.95115 226.052 8.54817 224.532 9.17232C224.206 8.43962 223.962 7.97829 223.365 7.27273C227.571 5.75305 230.936 3.28358 232.619 0.488464H234.98C235.875 1.84532 236.961 2.9308 238.643 4.1791C240.488 5.53595 242.144 6.40434 244.532 7.19131C244.071 7.86974 243.718 8.49389 243.446 9.22659C241.574 8.43962 240.597 7.92401 239.023 6.91994V8.41248C238.399 8.33107 237.829 8.30393 236.906 8.30393H234.763V10.8005H240.624C241.737 10.8005 242.388 10.7463 242.985 10.6649V12.7544C242.361 12.673 241.655 12.6187 240.624 12.6187H234.763V18.019H241.004C242.09 18.019 242.849 17.9647 243.582 17.8833V20.0814C242.822 19.9729 241.9 19.9186 240.977 19.9186H226.866C225.916 19.9186 225.075 19.9729 224.179 20.0814V17.8833C224.939 17.9647 225.78 18.019 226.839 18.019H232.673V12.6459H227.137C226.214 12.6459 225.509 12.7001 224.83 12.7815V10.692C225.455 10.7734 226.106 10.8277 227.164 10.8277H232.673V8.33107H230.692V8.30393ZM228.684 13.0529C229.471 14.3826 229.932 15.3324 230.529 16.9064L228.684 17.6391C228.195 16.1737 227.598 14.9525 226.839 13.8128L228.684 13.0529ZM236.906 6.56716C237.531 6.56716 237.91 6.56716 238.345 6.51289C236.309 5.10176 235.061 3.93487 233.813 2.27951C232.564 3.98914 231.452 5.02035 229.362 6.54003C229.851 6.56716 230.122 6.56716 230.665 6.56716H236.906ZM240.76 13.8399C240.597 14.1655 240.461 14.4098 240.38 14.5726C239.457 16.3908 239.457 16.3908 238.589 17.7476L236.852 17.0692C237.585 15.9837 238.236 14.6811 238.806 13.0529L240.76 13.8399Z" fill="#4C4C4C"/>
<path d="M279.729 0C280.896 1.19403 282.144 2.08955 283.989 3.09362C285.862 4.09769 287.436 4.74898 289.389 5.29172C288.901 5.99729 288.711 6.35007 288.44 7.27273C287.436 6.86567 287.028 6.70285 286.459 6.43148C286.459 6.54003 286.431 6.56716 286.431 6.64858C286.404 7.43555 286.404 7.59837 286.404 8.35821V10.3664C286.404 11.2619 286.431 11.8318 286.459 12.3745C285.916 12.3202 285.183 12.3202 284.342 12.3202H273.08C272.185 12.3202 271.615 12.3474 270.963 12.4016C271.018 11.886 271.072 11.1805 271.072 10.4206V8.33107C271.072 7.70692 271.072 7.43555 271.018 6.5943C270.583 6.78426 270.176 6.94708 269.172 7.35414C268.847 6.48575 268.63 6.13297 268.141 5.45455C270.366 4.74898 271.94 4.07056 273.677 3.06649C275.441 1.981 276.608 1.08548 277.503 0.027137H279.729V0ZM284.261 6.29579C285.156 6.29579 285.59 6.29579 286.133 6.26866C284.64 5.56309 283.989 5.21031 282.578 4.3962V5.45455C282.144 5.40027 281.52 5.37313 280.95 5.37313H276.689C275.848 5.37313 275.468 5.40027 274.98 5.45455V4.42334C273.351 5.42741 272.727 5.78019 271.669 6.26866C272.103 6.29579 272.592 6.29579 273.08 6.29579H284.261ZM272.13 15.4681C272.13 14.5997 272.103 13.867 272.049 13.2429C273.053 13.2972 273.894 13.2972 274.735 13.2972H283.202C284.261 13.2972 284.912 13.27 285.373 13.2157C285.319 13.7313 285.292 14.1927 285.292 15.3596V18.3989C285.292 19.4301 285.346 20.1085 285.427 20.7598H283.392V19.8915H274.03V20.7327H271.995C272.076 20.0271 272.13 19.403 272.13 18.4532V15.4681ZM272.863 10.882H277.748V7.78833H272.863V10.882ZM275.251 10.7734C274.898 9.9593 274.545 9.30801 274.003 8.57531L275.36 7.92402C275.929 8.68385 276.309 9.36228 276.662 10.0407L275.251 10.7734ZM274.03 15.9023H283.392V14.7626H274.03V15.9023ZM274.03 18.4532H283.392V17.3134H274.03V18.4532ZM280.896 3.8806C281.221 3.8806 281.384 3.8806 281.71 3.85346C280.434 3.03935 279.701 2.44233 278.616 1.43826C277.503 2.57802 276.798 3.17503 275.794 3.85346C276.092 3.8806 276.309 3.8806 276.689 3.8806H280.896ZM279.484 10.882H284.613V7.78833H279.484V10.882ZM280.706 10.0678C281.248 9.41655 281.628 8.7924 281.981 8.00543L283.419 8.68385C283.039 9.41655 282.659 9.98643 282.062 10.7734L280.706 10.0678Z" fill="#4C4C4C"/>
<path d="M8.60244 39.8372H7.59837V35.251C7.59837 34.3555 7.6255 33.6228 7.6255 32.7816H7.40841C7.16417 33.5957 6.94708 34.3012 6.62143 35.1696L4.93894 39.8101H3.60922L1.981 35.1696C1.68249 34.3284 1.46539 33.6228 1.16689 32.7544H1.00406C1.00406 33.5957 1.0312 34.3284 1.0312 35.2239V39.7829H0.0814056V31.9946H1.84531L3.41926 36.5807C3.69063 37.3406 3.93487 38.1547 4.23337 38.9688H4.45047C4.77611 38.1547 4.99321 37.4491 5.29172 36.6079L6.8928 31.9946H8.62957V39.8372H8.60244Z" fill="#4C4C4C"/>
<path d="M21.2754 37.1235C21.2754 38.8602 20.19 39.9729 18.6431 39.9729C17.0692 39.9729 16.0108 38.8874 16.0108 37.1506C16.0108 35.4138 17.0963 34.3012 18.6431 34.3012C20.1628 34.3012 21.2754 35.3867 21.2754 37.1235ZM16.9878 37.1235C16.9878 38.5075 17.6119 39.2944 18.616 39.2944C19.6472 39.2944 20.2714 38.5346 20.2714 37.1235C20.2714 35.7395 19.6472 34.9796 18.6431 34.9796C17.6119 34.9796 16.9878 35.7395 16.9878 37.1235Z" fill="#4C4C4C"/>
<path d="M33.2429 39.8372H32.2931V39.0502C31.8589 39.6743 31.2619 39.9729 30.502 39.9729C29.1452 39.9729 28.114 38.9145 28.114 37.1235C28.114 35.3053 29.1452 34.3012 30.4749 34.3012C31.2076 34.3012 31.8318 34.6269 32.266 35.2239V31.9132H33.2429V39.8372ZM32.266 36.0651C31.8589 35.3596 31.3162 35.0339 30.692 35.0339C29.7965 35.0339 29.0909 35.7395 29.0909 37.1506C29.0909 38.5617 29.8236 39.2673 30.7463 39.2673C31.3433 39.2673 31.8589 38.9416 32.266 38.2632V36.0651Z" fill="#4C4C4C"/>
<path d="M41.4111 37.2592C41.4111 38.5889 42.1167 39.3216 43.2022 39.3216C44.0434 39.3216 44.5319 38.9959 44.7761 38.2361L45.6716 38.5075C45.2646 39.4844 44.4776 40 43.2022 40C41.5468 40 40.4613 38.9417 40.4613 37.1778C40.4613 35.4681 41.6011 34.3284 43.1208 34.3284C44.6133 34.3284 45.7259 35.3596 45.7259 37.0963V37.2863H41.4111V37.2592ZM44.749 36.635C44.6404 35.5495 44.0434 34.9525 43.1208 34.9525C42.171 34.9525 41.5197 35.6038 41.4383 36.635H44.749Z" fill="#4C4C4C"/>
<path d="M55.7666 35.1425C55.0068 35.1425 54.2741 35.6581 53.867 36.7164V39.81H52.8901V34.4098H53.8399V35.7938C54.3012 34.7626 55.0339 34.3012 55.8209 34.3012L55.7666 35.1425Z" fill="#4C4C4C"/>
<path d="M63.6635 35.4138C64.2605 34.7354 65.0204 34.3012 65.8073 34.3012C66.8114 34.3012 67.517 34.8711 67.517 35.848V39.81H66.5129V36.1465C66.5129 35.3867 66.133 35.0339 65.4817 35.0339C64.9118 35.0339 64.2334 35.4138 63.6906 36.0923V39.7829H62.7137V34.3826H63.6635V35.4138Z" fill="#4C4C4C"/>
<path d="M91.479 39.8372H90.095L89.0366 35.4138C88.8195 34.4912 88.6567 33.7313 88.4939 32.863H88.2768C88.114 33.7313 87.9783 34.4912 87.7612 35.3867L86.6214 39.8372H85.2375L83.2565 32.0488H84.3419L85.346 36.3908C85.5631 37.2592 85.6988 38.0733 85.8345 38.9417H86.0516C86.2415 38.0733 86.3772 37.2592 86.5943 36.4179L87.6798 32.0217H89.1452L90.2035 36.4722C90.3935 37.2863 90.5292 37.9919 90.7191 38.9145H90.9362C91.1533 37.9919 91.2619 37.3134 91.4518 36.4451L92.5102 32.0217H93.5414L91.479 39.8372Z" fill="#4C4C4C"/>
<path d="M104.966 37.1235C104.966 38.8602 103.881 39.9729 102.334 39.9729C100.76 39.9729 99.7015 38.8874 99.7015 37.1506C99.7015 35.4138 100.787 34.3012 102.334 34.3012C103.881 34.3012 104.966 35.3867 104.966 37.1235ZM100.706 37.1235C100.706 38.5075 101.33 39.2944 102.334 39.2944C103.365 39.2944 103.989 38.5346 103.989 37.1235C103.989 35.7395 103.365 34.9796 102.361 34.9796C101.303 34.9796 100.706 35.7395 100.706 37.1235Z" fill="#4C4C4C"/>
<path d="M113.134 35.4138C113.704 34.7083 114.328 34.3012 115.142 34.3012C115.984 34.3012 116.554 34.7354 116.689 35.3867C117.232 34.7083 117.938 34.3012 118.725 34.3012C119.701 34.3012 120.38 34.8711 120.38 35.848V39.81H119.403V36.1465C119.403 35.3867 119.023 35.0339 118.399 35.0339C117.802 35.0339 117.178 35.4681 116.771 36.0923V39.7829H115.821V36.1194C115.821 35.3324 115.468 35.0068 114.871 35.0068C114.301 35.0068 113.677 35.3867 113.216 36.0651V39.7558H112.266V34.3555H113.216V35.4138H113.134Z" fill="#4C4C4C"/>
<path d="M128.521 37.2592C128.521 38.5889 129.227 39.3216 130.312 39.3216C131.153 39.3216 131.642 38.9959 131.886 38.2361L132.782 38.5075C132.374 39.4844 131.588 40 130.312 40C128.657 40 127.571 38.9417 127.571 37.1778C127.571 35.4681 128.711 34.3284 130.231 34.3284C131.723 34.3284 132.836 35.3596 132.836 37.0963V37.2863H128.521V37.2592ZM131.859 36.635C131.75 35.5495 131.153 34.9525 130.231 34.9525C129.281 34.9525 128.63 35.6038 128.548 36.635H131.859Z" fill="#4C4C4C"/>
<path d="M140.977 35.4138C141.574 34.7354 142.334 34.3012 143.121 34.3012C144.125 34.3012 144.83 34.8711 144.83 35.848V39.81H143.826V36.1465C143.826 35.3867 143.446 35.0339 142.795 35.0339C142.225 35.0339 141.547 35.4138 141.004 36.0923V39.7829H140.027V34.3826H140.977V35.4138Z" fill="#4C4C4C"/>
<path d="M152.89 34.7625H152.32L152.076 32.0488H153.189L152.89 34.7625Z" fill="#4C4C4C"/>
<path d="M163.691 35.8752C163.474 35.251 163.012 34.9525 162.361 34.9525C161.574 34.9525 161.113 35.2782 161.113 35.7124C161.113 36.228 161.384 36.4451 162.361 36.6621L162.849 36.7707C164.261 37.0692 164.776 37.4763 164.776 38.3718C164.776 39.2673 164.016 39.9729 162.415 39.9729C161.221 39.9729 160.353 39.5387 159.973 38.6703L160.923 38.3718C161.167 39.0502 161.764 39.3487 162.442 39.3487C163.446 39.3487 163.826 38.9417 163.826 38.4532C163.826 37.8833 163.609 37.6934 162.469 37.4491L161.981 37.3677C160.597 37.0692 160.19 36.635 160.19 35.7938C160.19 34.9796 160.923 34.3284 162.361 34.3284C163.501 34.3284 164.261 34.7897 164.613 35.6309L163.691 35.8752Z" fill="#4C4C4C"/>
<path d="M186.513 32.8087H182.008V35.3324H185.427V36.1194H182.008V39.8372H180.95V32.0488H186.513V32.8087Z" fill="#4C4C4C"/>
<path d="M197.91 37.1235C197.91 38.8602 196.825 39.9729 195.278 39.9729C193.704 39.9729 192.646 38.8874 192.646 37.1506C192.646 35.4138 193.731 34.3012 195.278 34.3012C196.825 34.3012 197.91 35.3867 197.91 37.1235ZM193.65 37.1235C193.65 38.5075 194.274 39.2944 195.278 39.2944C196.309 39.2944 196.934 38.5346 196.934 37.1235C196.934 35.7395 196.309 34.9796 195.305 34.9796C194.247 34.9796 193.65 35.7395 193.65 37.1235Z" fill="#4C4C4C"/>
<path d="M209.905 39.8372H208.955V38.8331C208.467 39.5115 207.653 39.9457 206.811 39.9457C205.862 39.9457 205.102 39.4301 205.102 38.4261V34.4369H206.106V38.1547C206.106 38.8874 206.513 39.213 207.164 39.213C207.788 39.213 208.521 38.7788 208.928 38.1276V34.4369H209.905V39.8372Z" fill="#4C4C4C"/>
<path d="M218.453 35.4138C219.05 34.7354 219.81 34.3012 220.597 34.3012C221.601 34.3012 222.307 34.8711 222.307 35.848V39.81H221.303V36.1465C221.303 35.3867 220.923 35.0339 220.271 35.0339C219.702 35.0339 219.023 35.4138 218.48 36.0923V39.7829H217.503V34.3826H218.453V35.4138Z" fill="#4C4C4C"/>
<path d="M234.654 39.8372H233.704V39.0502C233.27 39.6743 232.673 39.9729 231.913 39.9729C230.556 39.9729 229.525 38.9145 229.525 37.1235C229.525 35.3053 230.556 34.3012 231.886 34.3012C232.619 34.3012 233.243 34.6269 233.677 35.2239V31.9132H234.654V39.8372ZM233.677 36.0651C233.27 35.3596 232.727 35.0339 232.103 35.0339C231.208 35.0339 230.502 35.7395 230.502 37.1506C230.502 38.5617 231.235 39.2673 232.157 39.2673C232.754 39.2673 233.27 38.9416 233.677 38.2632V36.0651Z" fill="#4C4C4C"/>
<path d="M242.062 35.7124C242.388 34.7626 243.284 34.3012 244.505 34.3012C245.97 34.3012 246.73 34.8711 246.73 36.0923V38.0733C246.73 38.8331 246.784 39.4301 246.839 39.8372H245.943C245.889 39.5929 245.834 39.3487 245.807 38.9688C245.292 39.6472 244.559 39.9457 243.718 39.9457C242.524 39.9457 241.818 39.3216 241.818 38.3718C241.818 37.4491 242.415 36.825 243.826 36.6079C244.369 36.5265 245.047 36.4722 245.753 36.4451V36.1465C245.753 35.2782 245.373 34.9525 244.45 34.9525C243.718 34.9525 243.175 35.3053 242.958 35.9837L242.062 35.7124ZM245.78 37.0421C245.129 37.0421 244.532 37.1235 244.071 37.2049C243.175 37.3677 242.795 37.7476 242.795 38.3446C242.795 38.9417 243.202 39.3216 243.962 39.3216C244.613 39.3216 245.292 38.9688 245.78 38.2632V37.0421Z" fill="#4C4C4C"/>
<path d="M255.55 34.4369H257.015V35.1153H255.55V38.4532C255.55 39.0502 255.848 39.3216 256.391 39.3216C256.662 39.3216 256.879 39.3216 257.151 39.2673L257.096 39.9457C256.771 40 256.472 40 256.147 40C255.115 40 254.573 39.5658 254.573 38.616V35.1425H253.569V34.464H254.573V32.7815L255.522 32.5916V34.4369H255.55Z" fill="#4C4C4C"/>
<path d="M265.02 33.4057H263.826V32.3473H265.02V33.4057ZM264.912 39.8372H263.935V34.4369H264.912V39.8372Z" fill="#4C4C4C"/>
<path d="M277.422 37.1235C277.422 38.8602 276.336 39.9729 274.79 39.9729C273.216 39.9729 272.157 38.8874 272.157 37.1506C272.157 35.4138 273.243 34.3012 274.79 34.3012C276.309 34.3012 277.422 35.3867 277.422 37.1235ZM273.134 37.1235C273.134 38.5075 273.758 39.2944 274.763 39.2944C275.794 39.2944 276.418 38.5346 276.418 37.1235C276.418 35.7395 275.794 34.9796 274.79 34.9796C273.758 34.9796 273.134 35.7395 273.134 37.1235Z" fill="#4C4C4C"/>
<path d="M285.59 35.4138C286.187 34.7354 286.947 34.3012 287.734 34.3012C288.738 34.3012 289.444 34.8711 289.444 35.848V39.81H288.44V36.1465C288.44 35.3867 288.06 35.0339 287.408 35.0339C286.839 35.0339 286.16 35.4138 285.617 36.0923V39.7829H284.64V34.3826H285.59V35.4138Z" fill="#4C4C4C"/>
</svg>
