<svg width="40" height="40" viewBox="0 0 40 40" fill="none" xmlns="http://www.w3.org/2000/svg">
<g clip-path="url(#clip0)">
<path d="M16.8752 16.0928C14.6051 16.0928 12.969 17.9924 12.969 20.299C12.969 22.8341 14.9201 24.4965 17.8736 27.0129C18.3883 27.4514 18.9206 27.9049 19.4858 28.3993C19.6331 28.5282 19.8166 28.5926 20.0002 28.5926C20.1838 28.5926 20.3673 28.5283 20.5145 28.3993C21.0798 27.9049 21.612 27.4514 22.1267 27.0129C25.0802 24.4965 27.0313 22.8341 27.0313 20.299C27.0313 17.9922 25.3949 16.0928 23.1251 16.0928C21.5733 16.0928 20.589 16.9789 20.0002 17.8345C19.4114 16.9789 18.4271 16.0928 16.8752 16.0928ZM20.7536 19.8151C20.7595 19.7935 21.3663 17.6553 23.1251 17.6553C24.4613 17.6553 25.4688 18.7918 25.4688 20.299C25.4688 22.1126 23.8294 23.5095 21.1134 25.8236C20.753 26.1307 20.3841 26.445 20.0002 26.7765C19.6163 26.445 19.2474 26.1306 18.887 25.8236C16.1709 23.5095 14.5315 22.1126 14.5315 20.299C14.5315 18.7918 15.539 17.6553 16.8752 17.6553C18.6116 17.6553 19.2198 19.7201 19.2474 19.8173C19.3412 20.1555 19.6491 20.3896 20.0002 20.3896C20.352 20.3896 20.6605 20.1544 20.7536 19.8151Z" fill="white"/>
<path d="M9.84424 8.75C10.2757 8.75 10.6255 8.40022 10.6255 7.96875C10.6255 7.53728 10.2757 7.1875 9.84424 7.1875C9.41277 7.1875 9.06299 7.53728 9.06299 7.96875C9.06299 8.40022 9.41277 8.75 9.84424 8.75Z" fill="white"/>
<path d="M34.9828 18.5806C35.5306 18.998 36.1849 19.2185 36.875 19.2185C38.5981 19.2185 40 17.8167 40 16.0936C40 15.1093 39.5505 14.2027 38.7698 13.6085L34.8438 10.5913V0.781241C34.8438 0.34984 34.494 0 34.0625 0H29.3751C28.9436 0 28.5938 0.34984 28.5938 0.781241V5.78814L21.8924 0.637961C21.3446 0.220544 20.6903 0 20.0002 0C19.3101 0 18.6558 0.220544 18.1054 0.639914L12.1571 5.21135C11.815 5.47423 11.7508 5.96477 12.0137 6.3068C12.2766 6.64883 12.7672 6.71312 13.1093 6.45016L19.0549 1.88076C19.3283 1.67256 19.6551 1.56248 20.0002 1.56248C20.3453 1.56248 20.6721 1.67256 20.9429 1.87881L37.8206 14.8496C38.2126 15.1479 38.4375 15.6014 38.4375 16.0936C38.4375 16.9551 37.7366 17.656 36.875 17.656C36.5299 17.656 36.2031 17.546 35.9325 17.3399C35.0574 16.6668 21.1824 5.99548 20.4765 5.45251C20.2057 5.24416 19.8308 5.23603 19.5511 5.43251C19.5158 5.45728 4.07203 17.3367 4.07039 17.338C3.75719 17.5769 3.36563 17.6868 2.96626 17.648C2.19268 17.5731 1.77299 17.2093 1.60534 16.468C1.46487 15.847 1.6851 15.2267 2.18268 14.8474L7.53644 10.733C7.87855 10.4701 7.94276 9.97957 7.6798 9.63754C7.41683 9.29552 6.92629 9.23122 6.58426 9.49419L1.23308 13.6066C0.245589 14.3594 -0.195655 15.5879 0.0814507 16.8128C0.3984 18.2142 1.36948 19.0631 2.81509 19.2031C3.60766 19.2806 4.38984 19.0594 5.01795 18.5803L5.01678 18.5788C5.04999 18.5544 5.0953 18.5203 5.1567 18.4734V29.1919C3.36915 29.6207 1.98682 31.0751 1.65674 32.9167C0.626132 33.6455 0.000514171 34.8294 0.000514171 36.0933C0.000514171 38.2471 1.75284 39.9995 3.90672 39.9995H36.0938C38.2477 39.9995 40 38.2471 40 36.0933C40 34.8294 39.3744 33.6455 38.3438 32.9167C38.0137 31.0743 36.6304 29.6194 34.8438 29.1916V18.4736L34.9828 18.5806ZM30.1563 1.56248H33.2813V9.39052L30.1563 6.9889V1.56248ZM12.5003 38.437H3.90664C2.61431 38.437 1.56292 37.3857 1.56292 36.0933C1.56292 35.2586 2.02346 34.4803 2.76478 34.0621C2.98735 33.9366 3.13438 33.7101 3.15868 33.4556C3.31141 31.8515 4.63944 30.6246 6.25044 30.6246C7.25644 30.6246 8.20839 31.1201 8.79666 31.9499C8.98103 32.2099 9.30486 32.3319 9.61501 32.258C9.81524 32.2103 9.99243 32.1871 10.1566 32.1871C11.4183 32.1871 12.4849 33.2004 12.5002 34.5033C12.4336 34.9729 12.6847 35.2941 13.0105 35.4076C13.6152 35.6183 14.0628 36.19 14.0628 36.8745C14.0628 37.7361 13.3618 38.437 12.5003 38.437ZM25.9545 34.168C25.4716 34.4412 25.073 34.8352 24.7962 35.3122H15.2039C14.927 34.8351 14.5285 34.4412 14.0459 34.168C14.0328 34.0273 14.012 33.8877 13.9839 33.7489H26.0166C25.9885 33.8876 25.9677 34.0273 25.9545 34.168ZM15.2059 38.437C15.4725 37.9771 15.6253 37.4433 15.6253 36.8746H24.3751C24.3751 37.4433 24.528 37.9771 24.7945 38.437H15.2059ZM36.8418 33.4556C36.866 33.7101 37.0131 33.9365 37.2357 34.0621C37.977 34.4803 38.4376 35.2586 38.4376 36.0933C38.4376 37.3857 37.3862 38.437 36.0938 38.437H27.5002C26.6386 38.437 25.9377 37.7361 25.9377 36.8746C25.9377 36.1893 26.3861 35.618 26.99 35.4077C27.3186 35.2933 27.5665 34.9703 27.5003 34.5033C27.5157 33.2038 28.5792 32.1872 29.8439 32.1872C30.0081 32.1872 30.1853 32.2104 30.3855 32.2581C30.6955 32.3318 31.0195 32.21 31.2039 31.9499C31.7922 31.1202 32.7441 30.6247 33.7501 30.6247C35.3605 30.6246 36.6889 31.8501 36.8418 33.4556ZM33.2813 29.0868C32.1137 29.2058 31.0269 29.7644 30.2449 30.6481C30.1084 30.6325 29.9753 30.6246 29.8438 30.6246C28.6113 30.6246 27.4534 31.2137 26.7205 32.1871H13.28C12.5474 31.2139 11.3893 30.6246 10.1566 30.6246C10.025 30.6246 9.89188 30.6325 9.75548 30.6481C8.97346 29.7643 7.88675 29.2058 6.71911 29.0868V17.2721C7.85316 16.3999 18.6952 8.06076 20.0001 7.05734L33.2813 17.272V29.0868Z" fill="white"/>
</g>
<defs>
<clipPath id="clip0">
<rect width="40" height="40" fill="white"/>
</clipPath>
</defs>
</svg>
