<svg width="40" height="40" viewBox="0 0 40 40" fill="none" xmlns="http://www.w3.org/2000/svg">
<path d="M17.8734 16.0765C18.388 16.5151 18.9203 16.9685 19.4856 17.463C19.6329 17.5918 19.8164 17.6562 20 17.6562C20.1836 17.6562 20.3671 17.5918 20.5144 17.463C21.0796 16.9685 21.6119 16.515 22.1266 16.0764C25.0801 13.5601 27.0312 11.8977 27.0312 9.3625C27.0312 7.05117 25.3905 5.15625 23.125 5.15625C21.5731 5.15625 20.5887 6.04227 20 6.89797C19.4113 6.04227 18.4269 5.15625 16.875 5.15625C14.6092 5.15625 12.9688 7.05148 12.9688 9.3625C12.9688 11.8977 14.9199 13.5601 17.8734 16.0765ZM16.875 6.71875C18.6152 6.71875 19.2222 8.79242 19.2473 8.88141C19.3414 9.21922 19.6491 9.45312 20 9.45312C20.3519 9.45312 20.6603 9.21789 20.7534 8.87852C20.7594 8.85695 21.3661 6.71875 23.125 6.71875C24.4612 6.71875 25.4688 7.85531 25.4688 9.3625C25.4688 11.1762 23.8294 12.573 21.1133 14.8871C20.7529 15.1942 20.3839 15.5086 20 15.84C19.6161 15.5085 19.2471 15.1941 18.8867 14.8871C16.1706 12.573 14.5312 11.1762 14.5312 9.3625C14.5312 7.85531 15.5388 6.71875 16.875 6.71875Z" fill="white"/>
<path d="M12.9688 20.7812H27.0312C27.4627 20.7812 27.8125 20.4315 27.8125 20C27.8125 19.5685 27.4627 19.2188 27.0312 19.2188H12.9688C12.5373 19.2188 12.1875 19.5685 12.1875 20C12.1875 20.4315 12.5373 20.7812 12.9688 20.7812Z" fill="white"/>
<path d="M23.9062 23.125H16.0938C15.6623 23.125 15.3125 23.4748 15.3125 23.9062C15.3125 24.3377 15.6623 24.6875 16.0938 24.6875H23.9062C24.3377 24.6875 24.6875 24.3377 24.6875 23.9062C24.6875 23.4748 24.3377 23.125 23.9062 23.125Z" fill="white"/>
<path d="M20 40C20.4315 40 20.7812 39.6502 20.7812 39.2188C20.7812 38.7873 20.4315 38.4375 20 38.4375C19.5685 38.4375 19.2188 38.7873 19.2188 39.2188C19.2188 39.6502 19.5685 40 20 40Z" fill="white"/>
<path d="M0.78125 40H16.4844C16.9159 40 17.2656 39.6502 17.2656 39.2188C17.2656 38.7873 16.9159 38.4375 16.4844 38.4375H1.5625V20.0618C2.98477 21.1983 10.2207 26.9802 11.6266 28.1036L7.48789 31.9261C7.17094 32.2188 7.15125 32.7131 7.44398 33.0301C7.73586 33.3461 8.23008 33.3676 8.54797 33.074L12.8612 29.0902L16.3137 31.849C17.324 32.7727 18.6319 33.2812 20 33.2812C21.3677 33.2812 22.6755 32.7731 23.686 31.8498L27.139 29.0905L31.452 33.074C31.7711 33.3686 32.2652 33.3451 32.5559 33.0301C32.8488 32.7131 32.8291 32.2188 32.5121 31.9261L28.3737 28.1038L38.4375 20.0618V38.4375H23.5156C23.0842 38.4375 22.7344 38.7873 22.7344 39.2188C22.7344 39.6502 23.0842 40 23.5156 40H39.2188C39.6502 40 40 39.6502 40 39.2188V18.4375C40 18.1545 39.8417 17.882 39.5809 17.7455C39.5797 17.7449 39.5786 17.7441 39.5774 17.7434L33.2812 14.4899V0.78125C33.2812 0.349766 32.9314 0 32.5 0H7.5C7.06852 0 6.71875 0.349766 6.71875 0.78125V14.4899L0.422578 17.7434C0.165781 17.8758 0 18.1482 0 18.4375V39.2188C0 39.6502 0.349766 40 0.78125 40ZM37.7905 18.5788L33.2812 22.1821V16.2487L37.7905 18.5788ZM31.7188 1.5625V23.4307C22.2514 30.997 22.6866 30.646 22.6473 30.6822C21.9234 31.3507 20.9833 31.7188 20 31.7188C19.0165 31.7188 18.0764 31.3505 17.353 30.6818C17.3143 30.646 17.7202 30.9736 8.28125 23.4304V1.5625H31.7188ZM6.71875 22.1819L2.20961 18.5788L6.71875 16.2487V22.1819Z" fill="white"/>
</svg>
