<svg width="40" height="40" viewBox="0 0 40 40" fill="none" xmlns="http://www.w3.org/2000/svg">
<g clip-path="url(#clip0)">
<path d="M20.0052 0.000976562C8.8663 0.000976562 -0.0473341 9.07438 -0.000303023 20.0824C0.0472749 31.0437 8.92333 40.0008 19.9942 40.0008C30.9728 40.0008 40.0036 31.1227 39.9995 20.0006C39.9956 8.97563 31.0752 0.000976562 20.0052 0.000976562ZM35.5046 29.9822L30.9238 25.4013C32.5898 22.0216 32.5897 17.9843 30.9238 14.6005L35.5032 10.021C37.4238 12.9974 38.4358 16.4281 38.4371 20.0013C38.4384 23.5773 37.4268 27.0083 35.5046 29.9822ZM12.704 27.725C8.40888 23.669 8.30099 16.9172 12.2754 12.7055C16.2358 8.51422 22.9692 8.19344 27.2954 12.2768C31.5905 16.3328 31.6984 23.0846 27.724 27.2963C23.7943 31.4551 17.0571 31.8338 12.704 27.725ZM34.5877 8.72665L30.1136 13.2008C29.6119 12.4548 29.0281 11.7641 28.3679 11.1406C27.8781 10.6784 27.3526 10.2596 26.7993 9.88734L31.275 5.41158C32.5161 6.37314 33.6267 7.48446 34.5877 8.72665ZM29.9816 4.49541L25.4005 9.07649C22.0495 7.42149 18.0682 7.37556 14.604 9.08157L10.0204 4.49807C12.9982 2.57581 16.4306 1.56347 20.0052 1.56347C23.5795 1.56347 27.009 2.57487 29.9816 4.49541ZM8.72615 5.41353L13.2029 9.89023C12.4521 10.3929 11.7601 10.9756 11.1393 11.6326C10.6776 12.1219 10.259 12.6475 9.88622 13.2013L5.411 8.72602C6.37202 7.48509 7.48334 6.3747 8.72615 5.41353ZM4.49484 10.0197L9.07552 14.6005C7.40951 17.9802 7.40959 22.0175 9.07552 25.4013L4.49609 29.9809C2.58961 27.0267 1.57758 23.6217 1.56227 20.0757C1.5468 16.4725 2.55852 13.0155 4.49484 10.0197ZM5.41155 31.2752L9.88575 26.8009C10.3874 27.547 10.9712 28.2377 11.6314 28.8612C12.1212 29.3234 12.6468 29.7421 13.2 30.1145L8.72466 34.5897C7.48365 33.6297 6.37303 32.5186 5.41155 31.2752ZM10.0184 35.5058L14.5989 30.9254C17.9498 32.5804 21.9311 32.6263 25.3953 30.9203L29.9789 35.5039C27.0012 37.4261 23.5689 38.4384 19.9942 38.4384C16.4202 38.4383 12.9911 37.4268 10.0184 35.5058ZM31.2732 34.5883L26.7963 30.1115C27.5472 29.6088 28.2391 29.0261 28.86 28.3691C29.3216 27.8798 29.7403 27.3542 30.113 26.8004L34.5883 31.2758C33.6274 32.5173 32.5161 33.6277 31.2732 34.5883Z" fill="white"/>
<path d="M23.75 23.75C24.1815 23.75 24.5312 23.4002 24.5312 22.9688C24.5312 22.5373 24.1815 22.1875 23.75 22.1875C23.3185 22.1875 22.9688 22.5373 22.9688 22.9688C22.9688 23.4002 23.3185 23.75 23.75 23.75Z" fill="white"/>
<path d="M23.125 14.5312C21.5731 14.5312 20.5888 15.4173 20 16.273C19.4113 15.4173 18.4269 14.5312 16.875 14.5312C14.6049 14.5312 12.9688 16.4309 12.9688 18.7375C12.9688 21.2727 14.92 22.9351 17.8734 25.4515C18.3881 25.89 18.9203 26.3435 19.4856 26.838C19.6329 26.9668 19.8164 27.0312 20 27.0312C20.1836 27.0312 20.3671 26.9669 20.5144 26.838C20.8423 26.5512 21.1831 26.257 21.6195 25.884C21.9474 25.6037 21.9861 25.1105 21.7057 24.7825C21.4254 24.4545 20.9324 24.4159 20.6042 24.6962C20.382 24.8862 20.1842 25.056 20 25.2151C19.6162 24.8836 19.2472 24.5692 18.8868 24.2622C16.1706 21.948 14.5313 20.5512 14.5313 18.7375C14.5313 17.2303 15.5388 16.0937 16.875 16.0937C18.6155 16.0937 19.2224 18.1682 19.2466 18.2536C19.3396 18.593 19.6481 18.8281 20 18.8281C20.3519 18.8281 20.6603 18.5929 20.7535 18.2536C20.7594 18.232 21.3662 16.0937 23.125 16.0937C24.4612 16.0937 25.4688 17.2303 25.4688 18.7375C25.4688 19.144 25.3889 19.5302 25.2242 19.9183C25.0559 20.3155 25.2413 20.7741 25.6386 20.9425C26.036 21.1109 26.4944 20.9254 26.6628 20.5281C26.9107 19.9434 27.0313 19.3577 27.0313 18.7374C27.0313 16.4308 25.3948 14.5312 23.125 14.5312Z" fill="white"/>
</g>
<defs>
<clipPath id="clip0">
<rect width="40" height="40" fill="white"/>
</clipPath>
</defs>
</svg>
