<?xml version="1.0" encoding="utf-8"?>
<!-- Generator: Adobe Illustrator 25.4.1, SVG Export Plug-In . SVG Version: 6.00 Build 0)  -->
<svg version="1.1" id="圖層_1" xmlns="http://www.w3.org/2000/svg" xmlns:xlink="http://www.w3.org/1999/xlink" x="0px" y="0px"
	 viewBox="0 0 15.3 16" style="enable-background:new 0 0 15.3 16;" xml:space="preserve">
<path d="M14.9,10.4c-0.4-0.2-0.9,0-1,0.4c-0.5,1.1-1.3,2-2.3,2.6c-1,0.7-2.2,1-3.5,1c-3.6,0-6.4-2.9-6.4-6.4S4.4,1.6,8,1.6
	c1.2,0,2.4,0.4,3.5,1c1,0.6,1.8,1.6,2.3,2.6c0.2,0.4,0.7,0.6,1,0.4c0.4-0.2,0.6-0.7,0.4-1c-0.6-1.3-1.6-2.5-2.9-3.3
	C11,0.4,9.5,0,8,0C5.9,0,3.9,0.8,2.3,2.3C0.8,3.9,0,5.9,0,8s0.8,4.1,2.3,5.7C3.9,15.2,5.9,16,8,16c1.5,0,3-0.4,4.3-1.3
	c1.3-0.8,2.3-1.9,2.9-3.3C15.4,11.1,15.2,10.6,14.9,10.4z"/>
<path d="M8.4,11c0.2,0.2,0.4,0.2,0.6,0.2s0.4-0.1,0.6-0.2l2-2c0.3-0.3,0.4-0.7,0.4-1.1c0-0.4-0.2-0.8-0.4-1.1l-2-2
	C9.2,4.7,8.7,4.7,8.4,5c-0.3,0.3-0.3,0.8,0,1.1l1.2,1.2H5.1C4.7,7.2,4.3,7.6,4.3,8c0,0.4,0.3,0.8,0.8,0.8h4.4L8.4,9.9
	C8.1,10.2,8.1,10.7,8.4,11z"/>
</svg>
